<?xml version="1.0" encoding="UTF-8"?>
<svg width="1200pt" height="1200pt" version="1.1" viewBox="0 0 1200 1200" xmlns="http://www.w3.org/2000/svg">
 <path d="m728.39 1041.6c0 33.609-13.219 67.219-37.219 91.219s-56.391 37.219-91.219 37.219c-33.609 0-67.219-13.219-91.219-37.219s-37.219-56.391-37.219-91.219c0-33.609 13.219-67.219 37.219-91.219s56.391-37.219 91.219-37.219c33.609 0 67.219 13.219 91.219 37.219 24.047 24 37.219 56.391 37.219 91.219zm-128.39-753.61c33.609 0 67.219-13.219 91.219-37.219s37.219-56.391 37.219-91.219c0-33.609-13.219-67.219-37.219-91.219-24-23.953-57.609-38.344-91.219-38.344s-67.219 13.219-91.219 37.219-37.219 56.391-37.219 91.219c0 33.609 13.219 67.219 37.219 91.219 24 23.953 57.609 37.125 91.219 38.344zm0 183.61c-33.609 0-67.219 13.219-91.219 37.219s-37.219 56.391-37.219 91.219c0 33.609 13.219 67.219 37.219 91.219s56.391 37.219 91.219 37.219c33.609 0 67.219-13.219 91.219-37.219s37.219-56.391 37.219-91.219c0-33.609-13.219-67.219-37.219-91.219-24-24.047-57.609-37.219-91.219-37.219z" fill="#f4efef"/>
</svg>
