<?xml version="1.0" encoding="UTF-8"?>
<svg width="1200pt" height="1200pt" version="1.1" viewBox="0 0 1200 1200" xmlns="http://www.w3.org/2000/svg">
 <path d="m900 75h-600c-61.875 0-112.5 50.625-112.5 112.5v112.5h-37.5c-49.5 0-49.5 75 0 75h37.5v187.5h-37.5c-49.5 0-49.5 75 0 75h37.5v187.5h-37.5c-49.5 0-49.5 75 0 75h37.5v112.5c0 61.875 50.625 112.5 112.5 112.5h600c61.875 0 112.5-50.625 112.5-112.5v-825c0-61.875-50.625-112.5-112.5-112.5zm-487.5 975h-112.5c-20.625 0-37.5-16.875-37.5-37.5v-112.5h37.5c49.5 0 49.5-75 0-75h-37.5v-187.5h37.5c49.5 0 49.5-75 0-75h-37.5v-187.5h37.5c49.5 0 49.5-75 0-75h-37.5v-112.5c0-20.625 16.875-37.5 37.5-37.5h112.5zm337.5-450h-150c-49.5 0-49.5-75 0-75h150c49.5 0 49.5 75 0 75zm75-187.5h-225c-49.5 0-49.5-75 0-75h225c49.5 0 49.5 75 0 75z" fill="#f4efef"/>
</svg>
