<?xml version="1.0" encoding="UTF-8"?>
<svg width="1200pt" height="1200pt" version="1.1" viewBox="0 0 1200 1200" xmlns="http://www.w3.org/2000/svg">
 <path d="m489.52 60.047c-109.92 0-219.84 41.906-303.71 125.81-83.859 83.859-125.81 193.78-125.81 303.71 0 109.93 41.906 219.84 125.81 303.71 83.859 83.859 193.78 125.81 303.71 125.81 109.92 0 219.84-41.906 303.71-125.81 83.859-83.859 125.81-193.78 125.81-303.71 0-109.93-41.906-219.84-125.81-303.71-83.859-83.859-193.78-125.81-303.71-125.81zm-346.18 429.47c0-88.594 33.797-177.19 101.39-244.78 67.594-67.594 156.19-101.39 244.78-101.39 88.594 0 177.19 33.797 244.78 101.39 67.594 67.594 101.39 156.19 101.39 244.78 0 88.594-33.797 177.19-101.39 244.78-67.594 67.594-156.19 101.39-244.78 101.39-88.594 0-177.19-33.797-244.78-101.39-67.594-67.594-101.39-156.19-101.39-244.78zm719.16 276.61 263.29 263.29c9.4688 9.4688 14.156 21.844 14.156 34.266h-0.09375c0 12.422-4.6875 24.844-14.109 34.266l-27.844 27.844c-9.4219 9.4219-21.844 14.109-34.266 14.109v0.09375c-12.375 0-24.797-4.7344-34.266-14.156l-263.29-263.29c18.047-13.406 35.344-28.312 51.703-44.672s31.266-33.656 44.672-51.703z" fill="#f4efef" fill-rule="evenodd"/>
</svg>
