<?xml version="1.0" encoding="UTF-8"?>
<svg width="1200pt" height="1200pt" version="1.1" viewBox="0 0 1200 1200" xmlns="http://www.w3.org/2000/svg">
 <path d="m189.23 260.77c0-73.848 60-133.85 133.85-133.85h853.85l-2.3086 2.3086c-30 30-46.152 66.922-53.078 106.15h-717.69c-13.848 0-25.383 11.539-25.383 25.383 0 13.848 11.539 25.383 25.383 25.383l126.92 0.003906v108.46h-207.69c-73.848 2.3086-133.85-57.691-133.85-133.84zm519.23 161.54v6.9219l-46.152-39.23c-4.6172-4.6172-11.539-6.9219-16.152-6.9219-6.9219 0-11.539 2.3086-16.152 6.9219l-46.152 39.23v-140.77h126.92l-0.003907 133.85zm-50.77 650.77-46.152-39.23c-4.6172-4.6172-11.539-6.9219-16.152-6.9219-6.9219 0-11.539 2.3086-16.152 6.9219l-46.152 39.23v-140.77h126.92l-0.003906 140.77zm53.078-34.617v-108.46h360c4.6172 43.848 18.461 80.77 41.539 108.46zm413.08-265.38c-30 30-46.152 66.922-53.078 106.15h-717.69c-13.848 0-25.383 11.539-25.383 25.383 0 13.848 11.539 25.383 25.383 25.383h124.62l-0.003906 108.46h-207.69c-73.848 0-133.85-60-133.85-133.85 0-73.848 60-133.85 133.85-133.85h823.85l30 2.3125v0zm-115.39-323.08c-30 30-46.152 66.922-53.078 106.15h-717.69c-13.848 0-25.383 11.539-25.383 25.383 0 13.848 11.539 25.383 25.383 25.383h717.69c4.6172 43.848 18.461 80.77 43.848 108.46h-842.31c-73.848 0-133.85-60-133.85-133.85s60-133.85 133.85-133.85h371.54v36.922c0 9.2305 6.9219 18.461 16.152 23.078 9.2305 4.6172 20.77 2.3086 27.691-4.6172l71.539-62.309 73.848 62.309c4.6172 4.6172 11.539 6.9219 16.152 6.9219 4.6172 0 6.9219 0 11.539-2.3086 9.2305-4.6172 16.152-13.848 16.152-23.078v-36.922l246.93 2.3203c2.3086 0 2.3086 0 0 0zm85.387-53.078h-332.31v-108.46h360c4.6172 43.848 18.461 80.77 41.539 108.46z" fill="#8c8989"/>
</svg>
